# xmcd CD database file
#
# Track frame offsets:
#	150
#	12520
#	35587
#	49367
#	68620
#	83552
#	102305
#	119529
#	143377
#	163907
#
# Disc length: 2710 seconds
#
# Revision: 2
# Processed by: cddbd v1.5.1PL2 Copyright (c) Steve Scherf et al.
# Submitted via: CDex 1.51
#
DISCID=820a940a
DTITLE=Roy Buchanan - Hot Wires
DYEAR=1987
DGENRE=Blues
TTITLE0=High Wire
TTITLE1=That Did It
TTITLE2=Goose Grease
TTITLE3=Sunset Over Broadway
TTITLE4=Ain't No Business
TTITLE5=Flash Chordin'
TTITLE6=25 Miles
TTITLE7=These Arms of Mine
TTITLE8=Country Boogie
TTITLE9=The Blues Lover
EXTD=YEAR: 1987
EXTT0=
EXTT1=
EXTT2=
EXTT3=
EXTT4=
EXTT5=
EXTT6=
EXTT7=
EXTT8=
EXTT9=
PLAYORDER=
